<svg width="18" height="18" viewBox="0 0 18 18" fill="none" xmlns="http://www.w3.org/2000/svg">
<path d="M1.8405 5.95463C2.05147 5.74372 2.33757 5.62524 2.63588 5.62524C2.93419 5.62524 3.22028 5.74372 3.43125 5.95463L9 11.5234L14.5688 5.95463C14.7809 5.7497 15.0651 5.63631 15.3601 5.63887C15.655 5.64143 15.9372 5.75975 16.1458 5.96833C16.3544 6.17692 16.4727 6.45908 16.4753 6.75405C16.4778 7.04902 16.3644 7.3332 16.1595 7.54538L9.79538 13.9095C9.58441 14.1204 9.29831 14.2389 9 14.2389C8.70169 14.2389 8.41559 14.1204 8.20463 13.9095L1.8405 7.54538C1.6296 7.33441 1.51112 7.04831 1.51112 6.75C1.51112 6.45169 1.6296 6.1656 1.8405 5.95463Z" fill="white"/>
</svg>
